<svg xmlns="http://www.w3.org/2000/svg" viewBox="0 0 255 135.8"><defs><style>.cls-1{fill:#5f6269;}</style></defs><g id="Layer_2" data-name="Layer 2"><g id="Tervehdys"><path class="cls-1" d="M66.64,28.52S69.49,34.44,62.31,56c-7.4,22.21-11.62,24.15-13.69,26.13-1.37,1.29-4.94,3-6.44,1.29S38,79,38,79s4.14,5.51,8.65-.78c3.47-4.85,7.35-13.73,9.47-22.56C58,47.83,61.39,25.1,55.6,23.2c-4.26-1.4-12.26,7-13.87,7.7S54.65,20.41,54.65,20.41l7.32.37,4.16,1.67Z"/><path class="cls-1" d="M95.56,19.83s3.24,5.38-3.44,24.73C86,62.24,80.57,66.91,79.35,68.07s-4.47,2.66-5.83,1.16A8.21,8.21,0,0,1,72,65s.91,5.1,5-.55c2.48-3.44,7.08-13.25,8.75-20.3s5.15-24.91-.61-26.68c-3.88-1.19-10.49,3.8-12,4.43S84.73,12.5,84.73,12.5l7,.17,2.72,1.84Z"/><path class="cls-1" d="M66.64,24.15C67.25,21.6,65,12.94,58,13c-14.86,0-30.09,20.5-40.75,44.39C3.4,88.41,0,124.66,0,124.66l6.78,0s4.11-35.64,17.65-63.33S53.66,21.12,60,21.29c2.56.07,6.38,3.41,6.38,7.12Z"/><path class="cls-1" d="M95.8,21.6l.07-.14c.13-5.55,0-13.8-6.44-14.61C78.9,5.51,63.17,19,46.23,48.65s-9.61,37.95-4.12,38c4.67.06,9.91-7.94,9.91-8-.54.68-3.54,4.52-7.08,4.73s-.86-16,9.47-34C67,27.53,85,13.22,90.76,14.44,93.92,15.11,93.59,15.3,95.8,21.6Z"/><path class="cls-1" d="M116.92,0C106.46,3.65,90.11,13.73,77.23,37.51c-14.61,27-8.58,34.17-3.64,34.24,4.53.06,9.33-7.74,9.33-7.74s-2.76,4.54-6.78,4.84c-4.53.35.08-14.51,9.1-30.59,10-17.81,19.38-24.16,31-30.12Z"/><path class="cls-1" d="M72.53,124.42h-6.4V99.58H66c-3.5,8.86-7.15,16.9-10.73,24.84H51.82c-3.41-8-6.88-16-10.19-24.84h-.1v24.84H36.38V92.56h7.91c3.27,7.84,8.55,20.31,9.78,24.4h.1c1.5-4.3,7.22-16.56,10.87-24.4H72.5v31.86Zm10.22-10.8H97.5c.45-6.78-2.52-12.47-9.6-12.47-6.51,0-11.62,4.46-11.62,11.48,0,7.49,5.14,12.37,12,12.37a18.17,18.17,0,0,0,8.92-2.56l-1.74-3.2A11.6,11.6,0,0,1,89.4,121c-3.79,0-6.78-3.16-6.65-7.46Zm.07-3.31c0-3.06,1.5-5.82,5-5.82,3,0,4.26,2.35,4,5.82Zm25.89-15.46-6.06,1.36v5.45H99.48v3.1h3.17v12.91c0,4.67,2.18,7.29,7.19,7.29a13,13,0,0,0,6-1.46l-1.06-3a5.73,5.73,0,0,1-2.89.78c-2,0-3.14-1.56-3.14-5.31V104.76h6v-3.1h-6Zm15.61,10.83v-4h-6v22.79h6.06V113.21c0-4.94,2.08-6.61,4.16-6.61a5.38,5.38,0,0,1,2.86.78l2.28-4.19a5.82,5.82,0,0,0-4.08-2c-1.88,0-3.21,1.8-3.92,2.76l-1.23,1.77ZM144.52,125c7.12,0,12-5.14,12-12.19,0-7.36-5.83-11.66-12-11.66s-11.93,4.3-11.93,11.66C132.59,119.82,137.4,125,144.52,125Zm0-3.37c-4.33,0-5.52-4.8-5.52-8.82,0-3.79,1.36-8.28,5.52-8.28s5.55,4.49,5.55,8.28C150.07,116.79,148.91,121.59,144.52,121.59Zm21.15-16.8v-3.13h-6.06V135.8h6.06V121.59a8.87,8.87,0,0,0,6.82,3.37c6.5,0,10.59-6.44,10.59-12.43,0-5-2.89-11.42-10.05-11.42a9.14,9.14,0,0,0-7.29,3.68h-.07Zm5.8,0c3.44,0,5.17,3.92,5.17,7.84s-1.36,8.72-5.41,8.72c-3.27,0-5.59-3.24-5.59-8C165.64,108.1,167.62,104.76,171.47,104.76ZM197.7,125c7.12,0,12-5.14,12-12.19,0-7.36-5.83-11.66-12-11.66s-11.93,4.3-11.93,11.66C185.77,119.82,190.61,125,197.7,125Zm0-3.37c-4.33,0-5.52-4.8-5.52-8.82,0-3.79,1.36-8.28,5.52-8.28s5.55,4.49,5.55,8.28C203.25,116.79,202.13,121.59,197.7,121.59Zm22,2.83V91h-6.06v33.46ZM228,98.66a3.67,3.67,0,0,0,3.64-3.81,3.73,3.73,0,0,0-3.74-3.51,3.56,3.56,0,0,0-3.51,3.51A3.71,3.71,0,0,0,228,98.66Zm-3,3v22.76h6V101.66ZM248,121a7.31,7.31,0,0,0,.58,3.34H255a14.51,14.51,0,0,1-.95-5.55v-9.27c0-7.08-5.15-8.45-9.34-8.45a13,13,0,0,0-8.72,3.1l1.94,2.87a8.67,8.67,0,0,1,6-2.32,4.12,4.12,0,0,1,4.16,3.41l-5.39,1.6c-5.28,1.5-8.41,4-8.41,8.28s3,6.91,6.5,6.91c2.08,0,4.16-1.39,5.83-2.72Zm.07-9.81c.44,6.71-2.7,9.71-5.11,9.71-1.47,0-2.73-1.36-2.73-3.37,0-2.62,1.5-4.33,4.46-5.25Z"/></g></g></svg>