<?xml version="1.0" encoding="utf-8"?>
<!-- Generator: Adobe Illustrator 26.0.1, SVG Export Plug-In . SVG Version: 6.00 Build 0)  -->
<svg version="1.1" id="Layer_1" xmlns="http://www.w3.org/2000/svg" xmlns:xlink="http://www.w3.org/1999/xlink" x="0px" y="0px"
	 viewBox="0 0 470.8 250.6" style="enable-background:new 0 0 470.8 250.6;" xml:space="preserve">
<style type="text/css">
	.st0{fill:#696A6F;}
	.st1{fill:url(#SVGID_1_);}
	.st2{fill:url(#SVGID_00000012449044635206098520000018146305724298071472_);}
	.st3{fill:url(#SVGID_00000091006328916829139570000013721765246034040218_);}
	.st4{fill:url(#SVGID_00000024705525234001969460000008609687516275489700_);}
	.st5{fill:url(#SVGID_00000070802894081653578850000017408591370963426726_);}
	.st6{fill:url(#SVGID_00000052065827622637637690000000453075164478174089_);}
	.st7{fill:#1B181C;}
	.st8{fill:url(#SVGID_00000045592777305586338630000008410866956191959695_);}
</style>
<g>
	<g>
		<path class="st0" d="M134,229.6h-11.8v-45.9H122c-6.5,16.4-13.2,31.2-19.8,45.9h-6.4c-6.3-14.7-12.7-29.5-18.8-45.9h-0.2v45.9
			h-9.5v-58.8h14.6c6,14.4,15.8,37.5,18.1,45h0.2c2.8-7.9,13.4-30.6,20.1-45H134V229.6z"/>
		<path class="st0" d="M152.9,209.6c-0.3,7.9,5.3,13.8,12.3,13.8c4.1,0,8.5-1.4,11.3-3.4l3.2,5.9c-5.7,3.4-11.7,4.7-16.5,4.7
			c-12.7,0-22.2-9-22.2-22.8c0-12.9,9.4-21.2,21.4-21.2c13.1,0,18.6,10.5,17.7,23H152.9z M169.6,203.6c0.4-6.4-1.8-10.8-7.4-10.8
			c-6.4,0-9.2,5.1-9.2,10.8H169.6z"/>
		<path class="st0" d="M200.8,187.6h11v5.7h-11V214c0,6.9,2.1,9.8,5.8,9.8c2.4,0,3.9-0.7,5.4-1.4l1.9,5.5c-3.3,1.8-7.3,2.7-11,2.7
			c-9.2,0-13.3-4.9-13.3-13.4v-23.9h-5.9v-5.7h5.9v-10.1l11.2-2.5V187.6z"/>
		<path class="st0" d="M229.7,195h0.2l2.3-3.3c1.3-1.8,3.8-5.1,7.2-5.1c2.5,0,5.2,1.3,7.6,3.8l-4.2,7.7c-1.8-0.9-3-1.4-5.3-1.4
			c-3.9,0-7.6,3.1-7.6,12.2v20.7h-11.2v-42h11.1V195z"/>
		<path class="st0" d="M244.9,208.1c0-13.6,10.8-21.5,22-21.5c11.3,0,22.1,7.9,22.1,21.5c0,13-8.9,22.5-22.1,22.5
			C253.8,230.6,244.9,221.1,244.9,208.1z M277.1,208.1c0-7-2.4-15.3-10.2-15.3c-7.6,0-10.2,8.3-10.2,15.3c0,7.4,2.2,16.3,10.2,16.3
			C275,224.4,277.1,215.5,277.1,208.1z"/>
		<path class="st0" d="M305.9,193.4h0.2c2.9-4.3,8.4-6.8,13.4-6.8c13.2,0,18.6,11.8,18.6,21.1c0,11.1-7.6,22.9-19.6,22.9
			c-5.1,0-9.5-2.5-12.6-6.2v26.2h-11.2v-63h11.2V193.4z M305.9,209.1c0,8.8,4.3,14.8,10.3,14.8c7.5,0,10-8.7,10-16.1
			c0-7.2-3.2-14.4-9.6-14.4C309.6,193.3,305.9,199.5,305.9,209.1z"/>
		<path class="st0" d="M343.1,208.1c0-13.6,10.8-21.5,22-21.5c11.3,0,22.1,7.9,22.1,21.5c0,13-8.9,22.5-22.1,22.5
			C352,230.6,343.1,221.1,343.1,208.1z M375.3,208.1c0-7-2.4-15.3-10.2-15.3c-7.6,0-10.2,8.3-10.2,15.3c0,7.4,2.2,16.3,10.2,16.3
			C373.2,224.4,375.3,215.5,375.3,208.1z"/>
		<path class="st0" d="M394.6,229.6v-61.7h11.2v61.7H394.6z"/>
		<path class="st0" d="M414.4,175c0-3.2,2.7-6.5,6.5-6.5c3.9,0,6.9,3.2,6.9,6.5c0,3.6-2.6,7.1-6.7,7.1
			C417.1,182.1,414.4,178.6,414.4,175z M426.7,187.6v42h-11.2v-42H426.7z"/>
		<path class="st0" d="M455.4,225.6c-3.1,2.4-6.9,5-10.8,5c-6.6,0-12-5-12-12.8c0-8,5.8-12.5,15.5-15.3l9.9-2.9
			c-0.6-3.9-4-6.3-7.6-6.3c-4.8,0-8.1,1.8-11.1,4.3l-3.6-5.3c5.2-4.3,10.3-5.7,16.1-5.7c7.7,0,17.2,2.5,17.2,15.6v17.1
			c0,3.4,0.4,7.3,1.8,10.2H459c-0.8-1.4-1.1-3.9-1.1-6.1L455.4,225.6z M451.9,207.3c-5.5,1.7-8.2,4.9-8.2,9.7c0,3.7,2.4,6.2,5,6.2
			c4.5,0,10.2-5.5,9.4-17.9L451.9,207.3z"/>
	</g>
	<g>
		<g>
			<linearGradient id="SVGID_1_" gradientUnits="userSpaceOnUse" x1="70.0124" y1="146.4202" x2="71.4652" y2="146.4202">
				<stop  offset="0" style="stop-color:#EF9101"/>
				<stop  offset="0" style="stop-color:#F8C000"/>
				<stop  offset="0" style="stop-color:#F39400"/>
				<stop  offset="1" style="stop-color:#FFEC00"/>
			</linearGradient>
			<path class="st1" d="M71.5,147.2c-0.9-0.9-1.5-1.5-1.5-1.5S70.5,146.4,71.5,147.2z"/>
			
				<linearGradient id="SVGID_00000145753974637690342710000006617920425044193946_" gradientUnits="userSpaceOnUse" x1="71.4652" y1="96.4262" x2="123.9405" y2="96.4262">
				<stop  offset="0" style="stop-color:#EF9101"/>
				<stop  offset="0" style="stop-color:#F8C000"/>
				<stop  offset="0" style="stop-color:#F39400"/>
				<stop  offset="1" style="stop-color:#FFEC00"/>
			</linearGradient>
			<path style="fill:url(#SVGID_00000145753974637690342710000006617920425044193946_);" d="M122.9,52.6l-1-11.2l-7.7-3.1l-13.5-0.7
				c0,0-0.1,0.1-0.4,0.3l-0.1,0l-0.2,0.2c-3.9,3-17.4,6.8-18.8,10.2c-0.9,2.3-5.1,10,2.5,6.6l6.7-5.2c0,0,2.5-1.8,3.3-2.2
				c2.2-1.2,12.4-5.1,14.3,6.9l0,0c1.7,14.4-2.2,38-4.6,48.1c-3.9,16.3-11.1,32.7-17.5,41.6c-1.5,2.1-3,3.5-4.5,4.4
				c-1.5,0.9-1.5-0.6-1.5-0.6l-4.1-1.2c-2.9-0.9-2.1-0.6-4.5,0.4c1.7,1.8,4.5,4.7,6.3,6.7c2.8,3.1,9.4,0,11.9-2.4
				c3.8-3.6,11.6-7.2,25.3-48.2C128.2,63.6,122.9,52.6,122.9,52.6z"/>
		</g>
		
			<linearGradient id="SVGID_00000049193069361177415790000017873709339741136049_" gradientUnits="userSpaceOnUse" x1="132.791" y1="76.0514" x2="177.7955" y2="76.0514">
			<stop  offset="0" style="stop-color:#EF9101"/>
			<stop  offset="0" style="stop-color:#F8C000"/>
			<stop  offset="0" style="stop-color:#F39400"/>
			<stop  offset="1" style="stop-color:#FFEC00"/>
		</linearGradient>
		<path style="fill:url(#SVGID_00000049193069361177415790000017873709339741136049_);" d="M176.3,36.6l-2-9.8l-5-3.4l-12.9-0.3
			c0,0-24.1,18.6-21.4,17.4c2.7-1.1,14.9-10.4,22.1-8.1c10.6,3.3,4.2,36.2,1.1,49.2c-3.1,13-11.6,31.1-16.2,37.5
			c-1.5,2.1-2.8,3.4-3.8,4.1c-0.9,0.6-0.9-0.4-0.9-0.4l-0.8,0c-3.5,1.5-3.6-2.7-3.6-2.7s0.4,4.9,2.9,7.7c2.5,2.8,8.5,0,10.7-2.1
			c2.3-2.1,12.3-10.8,23.6-43.4C182.3,46.6,176.3,36.6,176.3,36.6z"/>
		<g>
			<g>
				
					<linearGradient id="SVGID_00000102532350578186466790000013077659889446356115_" gradientUnits="userSpaceOnUse" x1="0" y1="127.0078" x2="123.143" y2="127.0078">
					<stop  offset="0" style="stop-color:#E2061B"/>
					<stop  offset="0.3333" style="stop-color:#E85E0C"/>
					<stop  offset="1" style="stop-color:#ED7509"/>
				</linearGradient>
				<path style="fill:url(#SVGID_00000102532350578186466790000013077659889446356115_);" d="M123,44.6c1.2-4.7-3-20.7-15.9-20.7
					c-27.4,0-55.5,37.8-75.2,81.9C6.3,163.2,0,230.1,0,230.1l12.5,0c0,0,7.6-65.7,32.6-116.9c25-51.2,53.9-74.3,65.6-73.9
					c2.3,0.1,5.6,1.7,7.4,6.1c1.3,3.2,4.4,3.5,4.4,7.1L123,44.6z"/>
			</g>
		</g>
		
			<linearGradient id="SVGID_00000076588506339538979320000005348018635853536177_" gradientUnits="userSpaceOnUse" x1="65.8902" y1="86.1662" x2="176.9514" y2="86.1662">
			<stop  offset="0" style="stop-color:#E2061B"/>
			<stop  offset="0.3333" style="stop-color:#E85E0C"/>
			<stop  offset="1" style="stop-color:#ED7509"/>
		</linearGradient>
		<path style="fill:url(#SVGID_00000076588506339538979320000005348018635853536177_);" d="M175.2,36.4c0,0-1.9-5.3-6.9-7.3
			c-1.4-0.6-3-0.9-4.9-0.7c-3.3,0.2-5,0.8-7.7,2.2c-2.2,1.1-5.3,3-5.3,3c-14.7,10.1-34.4,30.6-49.9,57.7
			c-19,33.2-24.2,63.2-17.5,62.7c6.5-0.4,12.1-7.5,13.1-8.8c0,0-9.7,14.8-18.3,14.7c-10.1-0.1-23.7-15.5,7.6-70.2
			C116.5,35,145.6,10.1,165,12.6c11.8,1.5,12.2,16.7,11.9,27l-0.1,0.3L172,29.5"/>
		
			<linearGradient id="SVGID_00000023965251786709241510000012431792504624786573_" gradientUnits="userSpaceOnUse" x1="171.9978" y1="29.4633" x2="171.9978" y2="29.4633">
			<stop  offset="0" style="stop-color:#E2061B"/>
			<stop  offset="0.3333" style="stop-color:#E85E0C"/>
			<stop  offset="1" style="stop-color:#ED7509"/>
		</linearGradient>
		<path style="fill:url(#SVGID_00000023965251786709241510000012431792504624786573_);" d="M172,29.5"/>
		<path class="st7" d="M154.7,32.1"/>
		<g>
			<g>
				
					<linearGradient id="SVGID_00000119117725633752195640000006774793514544045485_" gradientUnits="userSpaceOnUse" x1="125.5406" y1="66.2047" x2="215.7388" y2="66.2047">
					<stop  offset="0" style="stop-color:#E2061B"/>
					<stop  offset="0.3333" style="stop-color:#E85E0C"/>
					<stop  offset="1" style="stop-color:#ED7509"/>
				</linearGradient>
				<path style="fill:url(#SVGID_00000119117725633752195640000006774793514544045485_);" d="M215.7,0
					c-19.3,6.7-49.4,25.3-73.3,69.2c-27,49.8-15.9,63.1-6.7,63.2c8.3,0.1,17.2-14.3,17.2-14.3s-5.1,8.4-12.5,8.9
					c-8.4,0.6,0.1-26.8,16.8-56.5C175.7,37.7,193,26,214.4,15L215.7,0z"/>
			</g>
		</g>
	</g>
</g>
</svg>
